


IMDB:- 
http://www.imdb.com/title/tt1288403/




RIP INFO:-
Code:

General
Complete name                    : E:\MOVIES\DUBBED\Universal Soldier Regeneration [2009] Dvd-Rip_By [~SAIF~] [~TDT~].avi
Format                           : AVI
Format/Info                      : Audio Video Interleave
File size                        : 691 MiB
Duration                         : 1h 36mn
Overall bit rate                 : 997 Kbps
Writing library                  : VirtualDub build 32817/release

Video
ID                               : 0
Format                           : MPEG-4 Visual
Format profile                   : Advanced Simple@L5
Format settings, BVOP            : Yes
Format settings, QPel            : No
Format settings, GMC             : No warppoints
Format settings, Matrix          : Default (H.263)
Codec ID                         : XVID
Codec ID/Hint                    : XviD
Duration                         : 1h 36mn
Bit rate                         : 863 Kbps
Width                            : 688 pixels
Height                           : 320 pixels
Display aspect ratio             : 2.2:1
Frame rate                       : 25.000 fps
Color space                      : YUV
Chroma subsampling               : 4:2:0
Bit depth                        : 8 bits
Scan type                        : Progressive
Bits/(Pixel*Frame)               : 0.157
Stream size                      : 598 MiB (87%)
Writing library                  : XviD 1.2.1 (UTC 2008-12-04)

Audio
ID                               : 1
Format                           : MPEG Audio
Format version                   : Version 1
Format profile                   : Layer 3
Codec ID                         : 55
Codec ID/Hint                    : MP3
Duration                         : 1h 34mn
Bit rate mode                    : Constant
Bit rate                         : 128 Kbps
Channel(s)                       : 2 channels
Sampling rate                    : 48.0 KHz
Video delay                      : 1s 500ms
Stream size                      : 86.2 MiB (12%)
Alignment                        : Split accross interleaves
Interleave, duration             : 41 ms (1.03 video frame)
Interleave, preload duration     : 500 ms
Writing library                  : LAME



SOURCE:-
ROCK [THANKS]




RIPPER & UPLOADER;-
MY SELF = [~SAIF~]




SAMPLE:-


Screens
 
http://img203.imageshack.us/img203/1821/vlcsnap2010080801h13m38.png 
http://img717.imageshack.us/img717/5907/vlcsnap2010080801h14m04.png 
http://img839.imageshack.us/img839/5444/vlcsnap2010080801h14m08.png 
http://img203.imageshack.us/img203/2549/vlcsnap2010080801h14m17.png 
http://img839.imageshack.us/img839/1431/vlcsnap2010080801h12m41.png 
http://img839.imageshack.us/img839/8237/vlcsnap2010080801h12m45.png 
http://img839.imageshack.us/img839/617/vlcsnap2010080801h13m13.png 
http://img713.imageshack.us/img713/5070/vlcsnap2010080801h13m29.png